#!OML:ASF F:\VICON\USERDATA\INSTALL\Justin_Nancy\Justin_Nancy.ASF
:FULLY-SPECIFIED
:DEGREES
17
root -9.00517 17.433 -32.7584 0.830149 -5.47952 3.35168
lowerback 2.86539 -1.08997 -6.54493
upperback -0.293701 -1.62574 3.33633
thorax -1.63558 -0.741058 7.2402
lowerneck -8.4406 -0.634787 -12.2603
upperneck 17.9843 0.150425 4.83623
head 6.88083 -0.345438 3.61596
rclavicle 2.98177e-015 1.82882e-014
rhumerus -37.5638 -15.6759 -72.6474
rradius 23.3282
rwrist 13.65
rhand -13.491 16.4295
rfingers 7.12502
rthumb 12.6199 -13.1693
lclavicle 2.98177e-015 1.82882e-014
lhumerus -29.8502 17.7159 82.1256
lradius 27.3633
lwrist -9.03362
lhand -17.035 22.454
lfingers 7.12502
lthumb 9.2016 52.2333
rfemur -24.6423 5.02386 21.6788
rtibia 25.991
rfoot -0.0826593 -3.01154
rtoes 11.3205
lfemur 4.36082 2.62716 -25.2955
ltibia 39.6596
lfoot 10.7207 -12.0467
ltoes -18.3337
18
root -9.0146 17.4661 -32.5896 0.607701 -4.69347 3.08965
lowerback 5.43521 -1.38758 -8.03193
upperback -1.70593 -2.23919 4.75303
thorax -4.36252 -0.822003 9.82349
lowerneck -8.23976 -0.316031 -13.1041
upperneck 19.2497 0.889942 3.78868
head 7.21254 -0.184679 3.48923
rclavicle 6.49777e-015 3.65764e-014
rhumerus -38.7714 -12.1802 -71.3678
rradius 23.651
rwrist 12.2908
rhand -13.5725 16.2157
rfingers 7.12502
rthumb 12.5413 -13.3879
lclavicle 6.49777e-015 3.65764e-014
lhumerus -32.5522 19.4531 82.9451
lradius 27.4046
lwrist -9.45608
lhand -17.0009 22.836
lfingers 7.12502
lthumb 9.23448 52.6138
rfemur -23.4234 4.81775 21.9651
rtibia 25.5541
rfoot -0.54481 -3.74942
rtoes 12.0634
lfemur 3.24332 2.10189 -24.6541
ltibia 41.9386
lfoot 13.3313 -12.956
ltoes -14.7955
19
root -9.01449 17.5045 -32.4156 0.318347 -3.13148 2.57707
lowerback 6.61589 -1.84002 -7.80872
upperback -2.09276 -2.88534 5.25545
thorax -5.28619 -1.07348 10.3877
lowerneck -8.48032 -0.272866 -13.3
upperneck 19.6919 1.08643 3.45911
head 7.39108 -0.150537 3.438
rclavicle 2.36554e-014 -1.90833e-014
rhumerus -38.8903 -11.2404 -70.9424
rradius 23.7132
rwrist 11.727
rhand -12.8184 15.9182
rfingers 7.12502
rthumb 13.2683 -13.6395
lclavicle 2.36554e-014 -1.90833e-014
lhumerus -33.3649 19.6631 83.4474
lradius 27.3723
lwrist -9.879
lhand -17.0209 24.4584
lfingers 7.12502
lthumb 9.21515 54.237
rfemur -21.9909 4.13274 22.4541
rtibia 25.0583
rfoot -1.12399 -4.71841
rtoes 13.6721
lfemur 2.13036 0.85819 -23.7433
ltibia 44.2321
lfoot 16.172 -13.7531
ltoes -10.9314
20
root -9.00924 17.5663 -32.2078 -0.285485 1.86001 2.09681
lowerback 7.25598 -3.33804 -6.4726
upperback -2.06981 -4.81167 5.12726
thorax -5.28132 -2.08489 9.66784
lowerneck -8.51654 -0.447229 -13.2116
upperneck 19.6368 0.811675 3.59398
head 7.40098 -0.260692 3.445
rclavicle 3.95519e-014 -4.13472e-014
rhumerus -38.8263 -11.2451 -71.2197
rradius 23.9862
rwrist 11.0891
rhand -12.1925 14.7096
rfingers 7.12502
rthumb 13.8715 -14.8078
lclavicle 3.95519e-014 -4.13472e-014
lhumerus -33.1824 18.8645 83.7152
lradius 26.8434
lwrist -10.5084
lhand -17.1222 23.4288
lfingers 7.12502
lthumb 9.11741 53.2117
rfemur -19.7424 1.31314 22.7338
rtibia 24.5042
rfoot -2.11359 -7.03813
rtoes 14.2487
lfemur 1.22619 -3.27245 -22.6874
ltibia 46.4191
lfoot 19.1765 -15.0998
ltoes -8.48546
21
root -9.02193 17.596 -32.0566 -0.321723 1.94091 1.82994
lowerback 7.01727 -2.99734 -5.524
upperback -1.67852 -4.2768 4.61273
thorax -4.94286 -1.8857 8.46338
lowerneck -9.16333 -0.904117 -12.591
upperneck 19.6659 0.115713 3.90198
head 7.57889 -0.516897 3.39091
rclavicle 1.16848e-014 -1.59028e-014
rhumerus -38.5352 -12.3651 -71.9603
rradius 24.4208
rwrist 10.8209
rhand -12.5452 13.5813
rfingers 7.12502
rthumb 13.5316 -15.9591
lclavicle 1.16848e-014 -1.59028e-014
lhumerus -32.2078 17.064 84.0156
lradius 26.4559
lwrist -11.1185
lhand -17.1587 24.1151
lfingers 7.12502
lthumb 9.08225 53.8996
rfemur -18.8179 1.07166 23.1374
rtibia 23.937
rfoot -2.36585 -6.94268
rtoes 13.6611
lfemur -0.270427 -3.21663 -22.1342
ltibia 48.5869
lfoot 21.1523 -15.4263
ltoes -6.97978
22
root -9.03189 17.6208 -31.9016 -0.52672 2.38014 1.54082
lowerback 7.1107 -3.39314 -5.45429
upperback -1.78819 -4.79315 4.85999
thorax -5.00202 -2.13627 8.75019
lowerneck -8.41186 -0.572788 -12.819
upperneck 19.499 0.506161 3.86413
head 7.35655 -0.349218 3.44218
rclavicle -1.84e-014 -1.74931e-014
rhumerus -38.2063 -10.6469 -72.5999
rradius 24.5245
rwrist 10.1979
rhand -12.9415 13.2193
rfingers 7.12502
rthumb 13.1496 -16.346
lclavicle -1.84e-014 -1.74931e-014
lhumerus -33.1405 17.6696 83.8957
lradius 26.5743
lwrist -11.7149
lhand -17.4488 23.7656
lfingers 7.12502
lthumb 8.8023 53.562
rfemur -17.6739 0.726749 23.5218
rtibia 23.3975
rfoot -2.74537 -7.10085
rtoes 13.5619
lfemur -1.58563 -3.458 -21.5644
ltibia 50.6499
lfoot 22.0205 -15.4015
ltoes -5.9839
23
root -9.09152 17.6056 -31.7873 0.266625 -3.71673 1.23694
lowerback 5.74515 -1.01002 -5.73844
upperback -1.24093 -1.58005 4.65577
thorax -4.24546 -0.578475 8.31306
lowerneck -9.2063 -0.999302 -12.2548
upperneck 19.414 -0.112759 4.13174
head 7.51731 -0.571374 3.3881
rclavicle 5.30507e-015 -7.95139e-015
rhumerus -37.3846 -12.2363 -72.9332
rradius 24.326
rwrist 10.2974
rhand -13.4022 14.0486
rfingers 7.12502
rthumb 12.7055 -15.5449
lclavicle 5.30507e-015 -7.95139e-015
lhumerus -32.0324 15.9617 84.3328
lradius 26.1643
lwrist -12.1653
lhand -17.9721 23.1772
lfingers 7.12502
lthumb 8.29725 52.9942
rfemur -18.2225 4.71631 24.3112
rtibia 22.922
rfoot -2.25554 -4.95389
rtoes 12.9673
lfemur -3.37898 2.2337 -21.0027
ltibia 52.6548
lfoot 21.1703 -15.0891
ltoes -7.34506
24
root -9.08515 17.6273 -31.6177 -0.186754 -1.80426 0.897178
lowerback 7.04137 -2.59116 -6.72659
upperback -2.18491 -3.77526 6.1364
thorax -5.42349 -1.53046 10.8464
lowerneck -7.28431 0.515926 -13.8841
upperneck 18.8144 2.02951 3.60648
head 6.80358 0.306783 3.62406
rclavicle 5.19076e-014 -5.24792e-014
rhumerus -37.5692 -6.55387 -72.9538
rradius 24.3416
rwrist 8.23316
rhand -13.8811 15.2817
rfingers 7.12502
rthumb 12.2438 -14.3399
lclavicle 5.19076e-014 -5.24792e-014
lhumerus -35.0129 19.803 84.2554
lradius 26.6053
lwrist -12.9059
lhand -18.0792 24.1338
lfingers 7.12502
lthumb 8.19394 53.9549
rfemur -16.7242 3.57196 24.6425
rtibia 22.5039
rfoot -2.73819 -5.83007
rtoes 13.0361
lfemur -4.40576 0.726961 -20.3787
ltibia 54.5199
lfoot 21.1161 -14.653
ltoes -6.03467
25
root -9.07727 17.6555 -31.433 -0.63632 1.32978 0.643612
lowerback 6.3875 -2.74265 -4.30347
upperback -1.20572 -3.80977 4.64673
thorax -4.24463 -1.731 7.6822
lowerneck -8.752 -0.92121 -12.5065
upperneck 19.4451 -0.065935 4.33356
head 7.44168 -0.553457 3.49995
rclavicle -1.90709e-014 1.74931e-014
rhumerus -36.8108 -10.7252 -73.8624
rradius 24.3854
rwrist 7.20476
rhand -15.1387 16.8126
rfingers 7.12502
rthumb 11.031 -12.8775
lclavicle -1.90709e-014 1.74931e-014
lhumerus -32.4959 15.5646 84.6594
lradius 26.2113
lwrist -12.4621
lhand -18.0626 24.9999
lfingers 7.12502
lthumb 8.2099 54.8204
rfemur -15.1106 1.56111 24.828
rtibia 22.0726
rfoot -3.53884 -7.08826
rtoes 13.4491
lfemur -5.54506 -1.83959 -19.8405
ltibia 56.2402
lfoot 19.8158 -13.78
ltoes -7.20692
